<?xml version="1.0" encoding="UTF-8" standalone="no"?>
<!DOCTYPE svg PUBLIC "-//W3C//DTD SVG 1.1//EN"
 "http://www.w3.org/Graphics/SVG/1.1/DTD/svg11.dtd">
<!-- Generated by graphviz version 2.43.0 (0)
 -->
<!-- Title: adiar::statistics::__alg_base Pages: 1 -->
<svg width="283pt" height="552pt"
 viewBox="0.00 0.00 283.00 552.00" xmlns="http://www.w3.org/2000/svg" xmlns:xlink="http://www.w3.org/1999/xlink">
<g id="graph0" class="graph" transform="scale(1 1) rotate(0) translate(4 548)">
<title>adiar::statistics::__alg_base</title>
<!-- Node1 -->
<g id="node1" class="node">
<title>Node1</title>
<g id="a_node1"><a xlink:title="Common statistics for all algorithms.">
<polygon fill="#bfbfbf" stroke="black" points="0,-245.5 0,-275.5 98,-275.5 98,-245.5 0,-245.5"/>
<text text-anchor="start" x="8" y="-263.5" font-family="Helvetica,sans-Serif" font-size="10.00">adiar::statistics::</text>
<text text-anchor="middle" x="49" y="-252.5" font-family="Helvetica,sans-Serif" font-size="10.00">__alg_base</text>
</a>
</g>
</g>
<!-- Node2 -->
<g id="node2" class="node">
<title>Node2</title>
<g id="a_node2"><a xlink:href="structadiar_1_1statistics_1_1count__t.html" target="_top" xlink:title="Counting algorithm statistics.">
<polygon fill="none" stroke="black" points="155.5,-513.5 155.5,-543.5 253.5,-543.5 253.5,-513.5 155.5,-513.5"/>
<text text-anchor="start" x="163.5" y="-531.5" font-family="Helvetica,sans-Serif" font-size="10.00">adiar::statistics::</text>
<text text-anchor="middle" x="204.5" y="-520.5" font-family="Helvetica,sans-Serif" font-size="10.00">count_t</text>
</a>
</g>
</g>
<!-- Node1&#45;&gt;Node2 -->
<g id="edge1" class="edge">
<title>Node1&#45;&gt;Node2</title>
<path fill="none" stroke="midnightblue" d="M51.6,-285.8C56.03,-334.77 72.62,-443.06 134,-504.5 139.95,-510.46 147.46,-514.94 155.32,-518.31"/>
<polygon fill="midnightblue" stroke="midnightblue" points="55.08,-285.44 50.78,-275.76 48.1,-286.01 55.08,-285.44"/>
</g>
<!-- Node3 -->
<g id="node3" class="node">
<title>Node3</title>
<g id="a_node3"><a xlink:href="structadiar_1_1statistics_1_1equality__t.html" target="_top" xlink:title="Equality Checking algorithm statistics.">
<polygon fill="none" stroke="black" points="155.5,-464.5 155.5,-494.5 253.5,-494.5 253.5,-464.5 155.5,-464.5"/>
<text text-anchor="start" x="163.5" y="-482.5" font-family="Helvetica,sans-Serif" font-size="10.00">adiar::statistics::</text>
<text text-anchor="middle" x="204.5" y="-471.5" font-family="Helvetica,sans-Serif" font-size="10.00">equality_t</text>
</a>
</g>
</g>
<!-- Node1&#45;&gt;Node3 -->
<g id="edge2" class="edge">
<title>Node1&#45;&gt;Node3</title>
<path fill="none" stroke="midnightblue" d="M54.09,-285.57C62.1,-326.74 83.66,-408.76 134,-455.5 140.08,-461.15 147.55,-465.47 155.32,-468.78"/>
<polygon fill="midnightblue" stroke="midnightblue" points="57.5,-284.77 52.26,-275.57 50.62,-286.03 57.5,-284.77"/>
</g>
<!-- Node4 -->
<g id="node4" class="node">
<title>Node4</title>
<g id="a_node4"><a xlink:href="structadiar_1_1statistics_1_1intercut__t.html" target="_top" xlink:title="Intercut algorithm statistics.">
<polygon fill="none" stroke="black" points="155.5,-415.5 155.5,-445.5 253.5,-445.5 253.5,-415.5 155.5,-415.5"/>
<text text-anchor="start" x="163.5" y="-433.5" font-family="Helvetica,sans-Serif" font-size="10.00">adiar::statistics::</text>
<text text-anchor="middle" x="204.5" y="-422.5" font-family="Helvetica,sans-Serif" font-size="10.00">intercut_t</text>
</a>
</g>
</g>
<!-- Node1&#45;&gt;Node4 -->
<g id="edge3" class="edge">
<title>Node1&#45;&gt;Node4</title>
<path fill="none" stroke="midnightblue" d="M58.16,-285.03C70,-317.06 94.9,-372.87 134,-405.5 140.3,-410.76 147.79,-414.95 155.49,-418.28"/>
<polygon fill="midnightblue" stroke="midnightblue" points="61.42,-283.78 54.77,-275.53 54.83,-286.13 61.42,-283.78"/>
</g>
<!-- Node5 -->
<g id="node5" class="node">
<title>Node5</title>
<g id="a_node5"><a xlink:href="structadiar_1_1statistics_1_1nested__sweeping__t_1_1inner__t_1_1down__t.html" target="_top" xlink:title="Inner Down Sweep.">
<polygon fill="none" stroke="black" points="134,-355 134,-396 275,-396 275,-355 134,-355"/>
<text text-anchor="start" x="142" y="-384" font-family="Helvetica,sans-Serif" font-size="10.00">adiar::statistics::</text>
<text text-anchor="start" x="142" y="-373" font-family="Helvetica,sans-Serif" font-size="10.00">nested_sweeping_t::inner</text>
<text text-anchor="middle" x="204.5" y="-362" font-family="Helvetica,sans-Serif" font-size="10.00">_t::down_t</text>
</a>
</g>
</g>
<!-- Node1&#45;&gt;Node5 -->
<g id="edge4" class="edge">
<title>Node1&#45;&gt;Node5</title>
<path fill="none" stroke="midnightblue" d="M68.39,-283.51C84.22,-302.14 108.48,-328.07 134,-345.5 138.99,-348.91 144.43,-352.06 150,-354.94"/>
<polygon fill="midnightblue" stroke="midnightblue" points="71.03,-281.21 61.94,-275.77 65.66,-285.69 71.03,-281.21"/>
</g>
<!-- Node6 -->
<g id="node6" class="node">
<title>Node6</title>
<g id="a_node6"><a xlink:href="structadiar_1_1statistics_1_1nested__sweeping__t_1_1inner__t_1_1up__t.html" target="_top" xlink:title="Inner Up Sweep.">
<polygon fill="none" stroke="black" points="134,-295 134,-336 275,-336 275,-295 134,-295"/>
<text text-anchor="start" x="142" y="-324" font-family="Helvetica,sans-Serif" font-size="10.00">adiar::statistics::</text>
<text text-anchor="start" x="142" y="-313" font-family="Helvetica,sans-Serif" font-size="10.00">nested_sweeping_t::inner</text>
<text text-anchor="middle" x="204.5" y="-302" font-family="Helvetica,sans-Serif" font-size="10.00">_t::up_t</text>
</a>
</g>
</g>
<!-- Node1&#45;&gt;Node6 -->
<g id="edge5" class="edge">
<title>Node1&#45;&gt;Node6</title>
<path fill="none" stroke="midnightblue" d="M101.6,-278.99C115.88,-284.11 131.47,-289.69 146.07,-294.92"/>
<polygon fill="midnightblue" stroke="midnightblue" points="102.54,-275.61 91.94,-275.53 100.18,-282.2 102.54,-275.61"/>
</g>
<!-- Node7 -->
<g id="node7" class="node">
<title>Node7</title>
<g id="a_node7"><a xlink:href="structadiar_1_1statistics_1_1optmin__t.html" target="_top" xlink:title="Boolean Optimization algorithm statistics.">
<polygon fill="none" stroke="black" points="155.5,-245.5 155.5,-275.5 253.5,-275.5 253.5,-245.5 155.5,-245.5"/>
<text text-anchor="start" x="163.5" y="-263.5" font-family="Helvetica,sans-Serif" font-size="10.00">adiar::statistics::</text>
<text text-anchor="middle" x="204.5" y="-252.5" font-family="Helvetica,sans-Serif" font-size="10.00">optmin_t</text>
</a>
</g>
</g>
<!-- Node1&#45;&gt;Node7 -->
<g id="edge6" class="edge">
<title>Node1&#45;&gt;Node7</title>
<path fill="none" stroke="midnightblue" d="M108.17,-260.5C123.71,-260.5 140.32,-260.5 155.26,-260.5"/>
<polygon fill="midnightblue" stroke="midnightblue" points="108.15,-257 98.15,-260.5 108.15,-264 108.15,-257"/>
</g>
<!-- Node8 -->
<g id="node8" class="node">
<title>Node8</title>
<g id="a_node8"><a xlink:href="structadiar_1_1statistics_1_1prod2__t.html" target="_top" xlink:title="2&#45;ary Product Construction algorithm statistics.">
<polygon fill="none" stroke="black" points="155.5,-196.5 155.5,-226.5 253.5,-226.5 253.5,-196.5 155.5,-196.5"/>
<text text-anchor="start" x="163.5" y="-214.5" font-family="Helvetica,sans-Serif" font-size="10.00">adiar::statistics::</text>
<text text-anchor="middle" x="204.5" y="-203.5" font-family="Helvetica,sans-Serif" font-size="10.00">prod2_t</text>
</a>
</g>
</g>
<!-- Node1&#45;&gt;Node8 -->
<g id="edge7" class="edge">
<title>Node1&#45;&gt;Node8</title>
<path fill="none" stroke="midnightblue" d="M107.2,-242.24C123.39,-237.07 140.82,-231.51 156.35,-226.55"/>
<polygon fill="midnightblue" stroke="midnightblue" points="105.77,-239.02 97.31,-245.4 107.9,-245.69 105.77,-239.02"/>
</g>
<!-- Node9 -->
<g id="node9" class="node">
<title>Node9</title>
<g id="a_node9"><a xlink:href="structadiar_1_1statistics_1_1prod3__t.html" target="_top" xlink:title="3&#45;ary Product Construction algorithm statistics.">
<polygon fill="none" stroke="black" points="155.5,-147.5 155.5,-177.5 253.5,-177.5 253.5,-147.5 155.5,-147.5"/>
<text text-anchor="start" x="163.5" y="-165.5" font-family="Helvetica,sans-Serif" font-size="10.00">adiar::statistics::</text>
<text text-anchor="middle" x="204.5" y="-154.5" font-family="Helvetica,sans-Serif" font-size="10.00">prod3_t</text>
</a>
</g>
</g>
<!-- Node1&#45;&gt;Node9 -->
<g id="edge8" class="edge">
<title>Node1&#45;&gt;Node9</title>
<path fill="none" stroke="midnightblue" d="M71.13,-238.15C87.14,-222.26 110.37,-201.36 134,-187.5 140.64,-183.61 147.98,-180.17 155.33,-177.18"/>
<polygon fill="midnightblue" stroke="midnightblue" points="68.41,-235.92 63.87,-245.5 73.39,-240.84 68.41,-235.92"/>
</g>
<!-- Node10 -->
<g id="node10" class="node">
<title>Node10</title>
<g id="a_node10"><a xlink:href="structadiar_1_1statistics_1_1quantify__t.html" target="_top" xlink:title="Quantification algorithm statistics.">
<polygon fill="none" stroke="black" points="155.5,-98.5 155.5,-128.5 253.5,-128.5 253.5,-98.5 155.5,-98.5"/>
<text text-anchor="start" x="163.5" y="-116.5" font-family="Helvetica,sans-Serif" font-size="10.00">adiar::statistics::</text>
<text text-anchor="middle" x="204.5" y="-105.5" font-family="Helvetica,sans-Serif" font-size="10.00">quantify_t</text>
</a>
</g>
</g>
<!-- Node1&#45;&gt;Node10 -->
<g id="edge9" class="edge">
<title>Node1&#45;&gt;Node10</title>
<path fill="none" stroke="midnightblue" d="M60.96,-236.24C74.47,-208.87 99.89,-164.78 134,-138.5 140.4,-133.57 147.86,-129.55 155.47,-126.3"/>
<polygon fill="midnightblue" stroke="midnightblue" points="57.69,-234.96 56.53,-245.5 64,-237.99 57.69,-234.96"/>
</g>
<!-- Node11 -->
<g id="node11" class="node">
<title>Node11</title>
<g id="a_node11"><a xlink:href="structadiar_1_1statistics_1_1reduce__t.html" target="_top" xlink:title="Reduce algorithm statistics.">
<polygon fill="none" stroke="black" points="155.5,-49.5 155.5,-79.5 253.5,-79.5 253.5,-49.5 155.5,-49.5"/>
<text text-anchor="start" x="163.5" y="-67.5" font-family="Helvetica,sans-Serif" font-size="10.00">adiar::statistics::</text>
<text text-anchor="middle" x="204.5" y="-56.5" font-family="Helvetica,sans-Serif" font-size="10.00">reduce_t</text>
</a>
</g>
</g>
<!-- Node1&#45;&gt;Node11 -->
<g id="edge10" class="edge">
<title>Node1&#45;&gt;Node11</title>
<path fill="none" stroke="midnightblue" d="M55.9,-235.42C65.83,-198.46 89.35,-129.44 134,-89.5 140.12,-84.03 147.52,-79.73 155.18,-76.36"/>
<polygon fill="midnightblue" stroke="midnightblue" points="52.44,-234.81 53.34,-245.37 59.22,-236.55 52.44,-234.81"/>
</g>
<!-- Node12 -->
<g id="node12" class="node">
<title>Node12</title>
<g id="a_node12"><a xlink:href="structadiar_1_1statistics_1_1select__t.html" target="_top" xlink:title="Select algorithm statistics.">
<polygon fill="none" stroke="black" points="155.5,-0.5 155.5,-30.5 253.5,-30.5 253.5,-0.5 155.5,-0.5"/>
<text text-anchor="start" x="163.5" y="-18.5" font-family="Helvetica,sans-Serif" font-size="10.00">adiar::statistics::</text>
<text text-anchor="middle" x="204.5" y="-7.5" font-family="Helvetica,sans-Serif" font-size="10.00">select_t</text>
</a>
</g>
</g>
<!-- Node1&#45;&gt;Node12 -->
<g id="edge11" class="edge">
<title>Node1&#45;&gt;Node12</title>
<path fill="none" stroke="midnightblue" d="M52.78,-235.24C59.07,-190.04 78.45,-94.98 134,-40.5 140.04,-34.57 147.59,-30.04 155.46,-26.58"/>
<polygon fill="midnightblue" stroke="midnightblue" points="49.29,-234.99 51.48,-245.35 56.23,-235.88 49.29,-234.99"/>
</g>
</g>
</svg>
