<?xml version="1.0" encoding="UTF-8" standalone="no"?>
<!DOCTYPE svg PUBLIC "-//W3C//DTD SVG 1.1//EN"
 "http://www.w3.org/Graphics/SVG/1.1/DTD/svg11.dtd">
<!-- Generated by graphviz version 2.43.0 (0)
 -->
<!-- Title: adiar::statistics Pages: 1 -->
<svg width="1443pt" height="695pt"
 viewBox="0.00 0.00 1443.00 695.45" xmlns="http://www.w3.org/2000/svg" xmlns:xlink="http://www.w3.org/1999/xlink">
<g id="graph0" class="graph" transform="scale(1 1) rotate(0) translate(4 691.45)">
<title>adiar::statistics</title>
<!-- Node1 -->
<g id="node1" class="node">
<title>Node1</title>
<g id="a_node1"><a xlink:title="Available statistics from algorithm&#39;s and data structures.">
<polygon fill="#bfbfbf" stroke="black" points="1343,-311 1343,-330 1435,-330 1435,-311 1343,-311"/>
<text text-anchor="middle" x="1389" y="-318" font-family="Helvetica,sans-Serif" font-size="10.00">adiar::statistics</text>
</a>
</g>
</g>
<!-- Node2 -->
<g id="node2" class="node">
<title>Node2</title>
<g id="a_node2"><a xlink:href="structadiar_1_1statistics_1_1intercut__t.html" target="_top" xlink:title="Intercut algorithm statistics.">
<polygon fill="none" stroke="black" points="708,-578.5 708,-608.5 806,-608.5 806,-578.5 708,-578.5"/>
<text text-anchor="start" x="716" y="-596.5" font-family="Helvetica,sans-Serif" font-size="10.00">adiar::statistics::</text>
<text text-anchor="middle" x="757" y="-585.5" font-family="Helvetica,sans-Serif" font-size="10.00">intercut_t</text>
</a>
</g>
</g>
<!-- Node2&#45;&gt;Node1 -->
<g id="edge1" class="edge">
<title>Node2&#45;&gt;Node1</title>
<path fill="none" stroke="#9a32cd" stroke-dasharray="5,2" d="M816.12,-595.95C903.91,-598.7 1075.32,-600.38 1219,-579.5 1267.22,-572.49 1290.41,-585.82 1325,-551.5 1389.33,-487.68 1389.78,-365.04 1388.5,-330.04"/>
<polygon fill="#9a32cd" stroke="#9a32cd" points="816.21,-592.45 806.1,-595.62 815.97,-599.45 816.21,-592.45"/>
<text text-anchor="middle" x="1042" y="-599.5" font-family="Helvetica,sans-Serif" font-size="10.00"> intercut</text>
</g>
<!-- Node3 -->
<g id="node3" class="node">
<title>Node3</title>
<g id="a_node3"><a xlink:href="structadiar_1_1statistics_1_1____alg__base.html" target="_top" xlink:title="Common statistics for all algorithms.">
<polygon fill="none" stroke="black" points="351.5,-385.5 351.5,-415.5 449.5,-415.5 449.5,-385.5 351.5,-385.5"/>
<text text-anchor="start" x="359.5" y="-403.5" font-family="Helvetica,sans-Serif" font-size="10.00">adiar::statistics::</text>
<text text-anchor="middle" x="400.5" y="-392.5" font-family="Helvetica,sans-Serif" font-size="10.00">__alg_base</text>
</a>
</g>
</g>
<!-- Node3&#45;&gt;Node2 -->
<g id="edge2" class="edge">
<title>Node3&#45;&gt;Node2</title>
<path fill="none" stroke="midnightblue" d="M403.69,-425.83C408.47,-463.95 423.48,-535.24 470,-569.5 539.71,-620.83 646.54,-613.54 707.99,-603.56"/>
<polygon fill="midnightblue" stroke="midnightblue" points="407.14,-425.13 402.56,-415.58 400.18,-425.9 407.14,-425.13"/>
</g>
<!-- Node6 -->
<g id="node6" class="node">
<title>Node6</title>
<g id="a_node6"><a xlink:href="structadiar_1_1statistics_1_1select__t.html" target="_top" xlink:title="Select algorithm statistics.">
<polygon fill="none" stroke="black" points="993,-539.5 993,-569.5 1091,-569.5 1091,-539.5 993,-539.5"/>
<text text-anchor="start" x="1001" y="-557.5" font-family="Helvetica,sans-Serif" font-size="10.00">adiar::statistics::</text>
<text text-anchor="middle" x="1042" y="-546.5" font-family="Helvetica,sans-Serif" font-size="10.00">select_t</text>
</a>
</g>
</g>
<!-- Node3&#45;&gt;Node6 -->
<g id="edge6" class="edge">
<title>Node3&#45;&gt;Node6</title>
<path fill="none" stroke="midnightblue" d="M409.2,-425.37C418.91,-452.4 438.27,-494.77 470,-517.5 552.97,-576.95 870.68,-564.8 992.79,-557.69"/>
<polygon fill="midnightblue" stroke="midnightblue" points="412.49,-424.16 405.95,-415.83 405.86,-426.42 412.49,-424.16"/>
</g>
<!-- Node8 -->
<g id="node8" class="node">
<title>Node8</title>
<g id="a_node8"><a xlink:href="structadiar_1_1statistics_1_1prod2__t.html" target="_top" xlink:title="2&#45;ary Product Construction algorithm statistics.">
<polygon fill="none" stroke="black" points="570,-164.5 570,-194.5 668,-194.5 668,-164.5 570,-164.5"/>
<text text-anchor="start" x="578" y="-182.5" font-family="Helvetica,sans-Serif" font-size="10.00">adiar::statistics::</text>
<text text-anchor="middle" x="619" y="-171.5" font-family="Helvetica,sans-Serif" font-size="10.00">prod2_t</text>
</a>
</g>
</g>
<!-- Node3&#45;&gt;Node8 -->
<g id="edge9" class="edge">
<title>Node3&#45;&gt;Node8</title>
<path fill="none" stroke="midnightblue" d="M406.65,-375.12C414.72,-341.3 433.35,-281.45 470,-244.5 474.25,-240.22 539.6,-212.35 582.03,-194.52"/>
<polygon fill="midnightblue" stroke="midnightblue" points="403.18,-374.6 404.4,-385.12 410.01,-376.14 403.18,-374.6"/>
</g>
<!-- Node13 -->
<g id="node13" class="node">
<title>Node13</title>
<g id="a_node13"><a xlink:href="structadiar_1_1statistics_1_1nested__sweeping__t_1_1inner__t_1_1down__t.html" target="_top" xlink:title="Inner Down Sweep.">
<polygon fill="none" stroke="black" points="548.5,-350 548.5,-391 689.5,-391 689.5,-350 548.5,-350"/>
<text text-anchor="start" x="556.5" y="-379" font-family="Helvetica,sans-Serif" font-size="10.00">adiar::statistics::</text>
<text text-anchor="start" x="556.5" y="-368" font-family="Helvetica,sans-Serif" font-size="10.00">nested_sweeping_t::inner</text>
<text text-anchor="middle" x="619" y="-357" font-family="Helvetica,sans-Serif" font-size="10.00">_t::down_t</text>
</a>
</g>
</g>
<!-- Node3&#45;&gt;Node13 -->
<g id="edge15" class="edge">
<title>Node3&#45;&gt;Node13</title>
<path fill="none" stroke="midnightblue" d="M459.72,-392.43C487,-388.65 519.72,-384.12 548.31,-380.16"/>
<polygon fill="midnightblue" stroke="midnightblue" points="458.97,-389 449.55,-393.84 459.93,-395.94 458.97,-389"/>
</g>
<!-- Node14 -->
<g id="node14" class="node">
<title>Node14</title>
<g id="a_node14"><a xlink:href="structadiar_1_1statistics_1_1nested__sweeping__t_1_1inner__t_1_1up__t.html" target="_top" xlink:title="Inner Up Sweep.">
<polygon fill="none" stroke="black" points="548.5,-410 548.5,-451 689.5,-451 689.5,-410 548.5,-410"/>
<text text-anchor="start" x="556.5" y="-439" font-family="Helvetica,sans-Serif" font-size="10.00">adiar::statistics::</text>
<text text-anchor="start" x="556.5" y="-428" font-family="Helvetica,sans-Serif" font-size="10.00">nested_sweeping_t::inner</text>
<text text-anchor="middle" x="619" y="-417" font-family="Helvetica,sans-Serif" font-size="10.00">_t::up_t</text>
</a>
</g>
</g>
<!-- Node3&#45;&gt;Node14 -->
<g id="edge17" class="edge">
<title>Node3&#45;&gt;Node14</title>
<path fill="none" stroke="midnightblue" d="M459.72,-408.57C487,-412.35 519.72,-416.88 548.31,-420.84"/>
<polygon fill="midnightblue" stroke="midnightblue" points="459.93,-405.06 449.55,-407.16 458.97,-412 459.93,-405.06"/>
</g>
<!-- Node17 -->
<g id="node17" class="node">
<title>Node17</title>
<g id="a_node17"><a xlink:href="structadiar_1_1statistics_1_1quantify__t.html" target="_top" xlink:title="Quantification algorithm statistics.">
<polygon fill="none" stroke="black" points="708,-489.5 708,-519.5 806,-519.5 806,-489.5 708,-489.5"/>
<text text-anchor="start" x="716" y="-507.5" font-family="Helvetica,sans-Serif" font-size="10.00">adiar::statistics::</text>
<text text-anchor="middle" x="757" y="-496.5" font-family="Helvetica,sans-Serif" font-size="10.00">quantify_t</text>
</a>
</g>
</g>
<!-- Node3&#45;&gt;Node17 -->
<g id="edge21" class="edge">
<title>Node3&#45;&gt;Node17</title>
<path fill="none" stroke="midnightblue" d="M411.87,-424.94C422.77,-447.2 442.22,-478.78 470,-493.5 545.41,-533.45 648.37,-524.75 707.96,-514.69"/>
<polygon fill="midnightblue" stroke="midnightblue" points="414.99,-423.34 407.59,-415.76 408.64,-426.3 414.99,-423.34"/>
</g>
<!-- Node18 -->
<g id="node18" class="node">
<title>Node18</title>
<g id="a_node18"><a xlink:href="structadiar_1_1statistics_1_1prod3__t.html" target="_top" xlink:title="3&#45;ary Product Construction algorithm statistics.">
<polygon fill="none" stroke="black" points="993,-388.5 993,-418.5 1091,-418.5 1091,-388.5 993,-388.5"/>
<text text-anchor="start" x="1001" y="-406.5" font-family="Helvetica,sans-Serif" font-size="10.00">adiar::statistics::</text>
<text text-anchor="middle" x="1042" y="-395.5" font-family="Helvetica,sans-Serif" font-size="10.00">prod3_t</text>
</a>
</g>
</g>
<!-- Node3&#45;&gt;Node18 -->
<g id="edge23" class="edge">
<title>Node3&#45;&gt;Node18</title>
<path fill="none" stroke="midnightblue" d="M438.4,-420.32C467.29,-434.66 508.99,-452.82 548,-460.5 709.89,-492.37 905.45,-444.66 993.71,-418.6"/>
<polygon fill="midnightblue" stroke="midnightblue" points="439.62,-417.02 429.11,-415.62 436.46,-423.26 439.62,-417.02"/>
</g>
<!-- Node19 -->
<g id="node19" class="node">
<title>Node19</title>
<g id="a_node19"><a xlink:href="structadiar_1_1statistics_1_1reduce__t.html" target="_top" xlink:title="Reduce algorithm statistics.">
<polygon fill="none" stroke="black" points="708,-255.5 708,-285.5 806,-285.5 806,-255.5 708,-255.5"/>
<text text-anchor="start" x="716" y="-273.5" font-family="Helvetica,sans-Serif" font-size="10.00">adiar::statistics::</text>
<text text-anchor="middle" x="757" y="-262.5" font-family="Helvetica,sans-Serif" font-size="10.00">reduce_t</text>
</a>
</g>
</g>
<!-- Node3&#45;&gt;Node19 -->
<g id="edge25" class="edge">
<title>Node3&#45;&gt;Node19</title>
<path fill="none" stroke="midnightblue" d="M420.67,-377.61C446.3,-348.91 494.71,-301 548,-280.5 599.8,-260.58 664.26,-260.95 707.58,-264.44"/>
<polygon fill="midnightblue" stroke="midnightblue" points="418.02,-375.33 414.07,-385.16 423.29,-379.94 418.02,-375.33"/>
</g>
<!-- Node20 -->
<g id="node20" class="node">
<title>Node20</title>
<g id="a_node20"><a xlink:href="structadiar_1_1statistics_1_1optmin__t.html" target="_top" xlink:title="Boolean Optimization algorithm statistics.">
<polygon fill="none" stroke="black" points="850.5,-210.5 850.5,-240.5 948.5,-240.5 948.5,-210.5 850.5,-210.5"/>
<text text-anchor="start" x="858.5" y="-228.5" font-family="Helvetica,sans-Serif" font-size="10.00">adiar::statistics::</text>
<text text-anchor="middle" x="899.5" y="-217.5" font-family="Helvetica,sans-Serif" font-size="10.00">optmin_t</text>
</a>
</g>
</g>
<!-- Node3&#45;&gt;Node20 -->
<g id="edge27" class="edge">
<title>Node3&#45;&gt;Node20</title>
<path fill="none" stroke="midnightblue" d="M410.03,-375.69C420.29,-349.41 439.99,-308.46 470,-284.5 581.65,-195.36 764.01,-206.13 850.32,-217.54"/>
<polygon fill="midnightblue" stroke="midnightblue" points="406.66,-374.72 406.44,-385.31 413.22,-377.17 406.66,-374.72"/>
</g>
<!-- Node21 -->
<g id="node21" class="node">
<title>Node21</title>
<g id="a_node21"><a xlink:href="structadiar_1_1statistics_1_1equality__t.html" target="_top" xlink:title="Equality Checking algorithm statistics.">
<polygon fill="none" stroke="black" points="570,-47.5 570,-77.5 668,-77.5 668,-47.5 570,-47.5"/>
<text text-anchor="start" x="578" y="-65.5" font-family="Helvetica,sans-Serif" font-size="10.00">adiar::statistics::</text>
<text text-anchor="middle" x="619" y="-54.5" font-family="Helvetica,sans-Serif" font-size="10.00">equality_t</text>
</a>
</g>
</g>
<!-- Node3&#45;&gt;Node21 -->
<g id="edge29" class="edge">
<title>Node3&#45;&gt;Node21</title>
<path fill="none" stroke="midnightblue" d="M404.93,-375.13C411.33,-336.92 428.4,-264.33 470,-219.5 490.02,-197.93 512.03,-214.8 530,-191.5 557.31,-156.09 520.13,-127.47 548,-92.5 553.77,-85.26 561.62,-79.74 569.97,-75.54"/>
<polygon fill="midnightblue" stroke="midnightblue" points="401.42,-374.96 403.34,-385.38 408.33,-376.03 401.42,-374.96"/>
</g>
<!-- Node24 -->
<g id="node24" class="node">
<title>Node24</title>
<g id="a_node24"><a xlink:href="structadiar_1_1statistics_1_1count__t.html" target="_top" xlink:title="Counting algorithm statistics.">
<polygon fill="none" stroke="black" points="993,-622.5 993,-652.5 1091,-652.5 1091,-622.5 993,-622.5"/>
<text text-anchor="start" x="1001" y="-640.5" font-family="Helvetica,sans-Serif" font-size="10.00">adiar::statistics::</text>
<text text-anchor="middle" x="1042" y="-629.5" font-family="Helvetica,sans-Serif" font-size="10.00">count_t</text>
</a>
</g>
</g>
<!-- Node3&#45;&gt;Node24 -->
<g id="edge33" class="edge">
<title>Node3&#45;&gt;Node24</title>
<path fill="none" stroke="midnightblue" d="M403.08,-425.67C407.06,-467.37 421.04,-550.83 470,-597.5 614.4,-735.15 883.46,-681.51 992.87,-651.95"/>
<polygon fill="midnightblue" stroke="midnightblue" points="406.55,-425.22 402.23,-415.54 399.58,-425.8 406.55,-425.22"/>
</g>
<!-- Node4 -->
<g id="node4" class="node">
<title>Node4</title>
<g id="a_node4"><a xlink:href="structadiar_1_1statistics_1_1____alg__base_1_1____lpq__t.html" target="_top" xlink:title="Type and usage of this algorithm&#39;s levelized priority queue.">
<polygon fill="none" stroke="black" points="183,-248.5 183,-278.5 294,-278.5 294,-248.5 183,-248.5"/>
<text text-anchor="start" x="191" y="-266.5" font-family="Helvetica,sans-Serif" font-size="10.00">adiar::statistics::</text>
<text text-anchor="middle" x="238.5" y="-255.5" font-family="Helvetica,sans-Serif" font-size="10.00">__alg_base::__lpq_t</text>
</a>
</g>
</g>
<!-- Node4&#45;&gt;Node3 -->
<g id="edge3" class="edge">
<title>Node4&#45;&gt;Node3</title>
<path fill="none" stroke="#9a32cd" stroke-dasharray="5,2" d="M265,-285.33C297.62,-313.26 353.28,-360.93 381.69,-385.25"/>
<polygon fill="#9a32cd" stroke="#9a32cd" points="267.11,-282.53 257.23,-278.68 262.55,-287.85 267.11,-282.53"/>
<text text-anchor="middle" x="321.5" y="-342.5" font-family="Helvetica,sans-Serif" font-size="10.00"> lpq</text>
</g>
<!-- Node5 -->
<g id="node5" class="node">
<title>Node5</title>
<g id="a_node5"><a xlink:href="structadiar_1_1statistics_1_1levelized__priority__queue__t.html" target="_top" xlink:title="Levelized Priority Queue statistics.">
<polygon fill="none" stroke="black" points="0,-109.5 0,-139.5 146,-139.5 146,-109.5 0,-109.5"/>
<text text-anchor="start" x="8" y="-127.5" font-family="Helvetica,sans-Serif" font-size="10.00">adiar::statistics::</text>
<text text-anchor="middle" x="73" y="-116.5" font-family="Helvetica,sans-Serif" font-size="10.00">levelized_priority_queue_t</text>
</a>
</g>
</g>
<!-- Node5&#45;&gt;Node1 -->
<g id="edge34" class="edge">
<title>Node5&#45;&gt;Node1</title>
<path fill="none" stroke="#9a32cd" stroke-dasharray="5,2" d="M156.3,-122.51C284.47,-119.6 539.54,-114.5 756,-114.5 756,-114.5 756,-114.5 1165,-114.5 1247.48,-114.5 1267.23,-149.64 1325,-208.5 1355.94,-240.03 1376.71,-289.78 1384.53,-310.71"/>
<polygon fill="#9a32cd" stroke="#9a32cd" points="156.09,-119.02 146.17,-122.75 156.25,-126.02 156.09,-119.02"/>
<text text-anchor="start" x="575" y="-130.5" font-family="Helvetica,sans-Serif" font-size="10.00"> levelized_priority</text>
<text text-anchor="middle" x="619" y="-119.5" font-family="Helvetica,sans-Serif" font-size="10.00">_queue</text>
</g>
<!-- Node5&#45;&gt;Node4 -->
<g id="edge4" class="edge">
<title>Node5&#45;&gt;Node4</title>
<path fill="none" stroke="midnightblue" d="M99.76,-146.4C133.21,-174.84 190.73,-223.74 219.71,-248.38"/>
<polygon fill="midnightblue" stroke="midnightblue" points="101.69,-143.45 91.81,-139.64 97.16,-148.78 101.69,-143.45"/>
</g>
<!-- Node6&#45;&gt;Node1 -->
<g id="edge5" class="edge">
<title>Node6&#45;&gt;Node1</title>
<path fill="none" stroke="#9a32cd" stroke-dasharray="5,2" d="M1101.33,-563.64C1163.89,-570 1262.63,-569.6 1325,-517.5 1384.25,-468.01 1388.42,-362.7 1388.23,-330.23"/>
<polygon fill="#9a32cd" stroke="#9a32cd" points="1101.56,-560.15 1091.23,-562.53 1100.79,-567.11 1101.56,-560.15"/>
<text text-anchor="middle" x="1164" y="-568.5" font-family="Helvetica,sans-Serif" font-size="10.00"> select</text>
</g>
<!-- Node7 -->
<g id="node7" class="node">
<title>Node7</title>
<g id="a_node7"><a xlink:href="structadiar_1_1statistics_1_1arc__file__t.html" target="_top" xlink:title="Arc Files statistics.">
<polygon fill="none" stroke="black" points="1115,-487.5 1115,-517.5 1213,-517.5 1213,-487.5 1115,-487.5"/>
<text text-anchor="start" x="1123" y="-505.5" font-family="Helvetica,sans-Serif" font-size="10.00">adiar::statistics::</text>
<text text-anchor="middle" x="1164" y="-494.5" font-family="Helvetica,sans-Serif" font-size="10.00">arc_file_t</text>
</a>
</g>
</g>
<!-- Node7&#45;&gt;Node1 -->
<g id="edge7" class="edge">
<title>Node7&#45;&gt;Node1</title>
<path fill="none" stroke="#9a32cd" stroke-dasharray="5,2" d="M1223.05,-504.64C1256.19,-502.92 1296.66,-495.5 1325,-472.5 1371.36,-434.88 1384.01,-357.38 1387.1,-330.19"/>
<polygon fill="#9a32cd" stroke="#9a32cd" points="1222.89,-501.14 1213.02,-505 1223.14,-508.14 1222.89,-501.14"/>
<text text-anchor="middle" x="1281" y="-505.5" font-family="Helvetica,sans-Serif" font-size="10.00"> arc_file</text>
</g>
<!-- Node8&#45;&gt;Node1 -->
<g id="edge8" class="edge">
<title>Node8&#45;&gt;Node1</title>
<path fill="none" stroke="#9a32cd" stroke-dasharray="5,2" d="M678.69,-179.49C786.28,-180.16 1022.15,-184.74 1219,-210.5 1266.31,-216.69 1284.76,-201.86 1325,-227.5 1357.24,-248.04 1377.04,-291.64 1384.55,-310.95"/>
<polygon fill="#9a32cd" stroke="#9a32cd" points="678.39,-175.99 668.37,-179.44 678.35,-182.99 678.39,-175.99"/>
<text text-anchor="middle" x="1042" y="-200.5" font-family="Helvetica,sans-Serif" font-size="10.00"> prod2</text>
</g>
<!-- Node9 -->
<g id="node9" class="node">
<title>Node9</title>
<g id="a_node9"><a xlink:href="structadiar_1_1statistics_1_1prod2__t_1_1ra__t.html" target="_top" xlink:title="Statistics for the double priority queue implementation.">
<polygon fill="none" stroke="black" points="351.5,-141.5 351.5,-171.5 449.5,-171.5 449.5,-141.5 351.5,-141.5"/>
<text text-anchor="start" x="359.5" y="-159.5" font-family="Helvetica,sans-Serif" font-size="10.00">adiar::statistics::</text>
<text text-anchor="middle" x="400.5" y="-148.5" font-family="Helvetica,sans-Serif" font-size="10.00">prod2_t::ra_t</text>
</a>
</g>
</g>
<!-- Node9&#45;&gt;Node8 -->
<g id="edge10" class="edge">
<title>Node9&#45;&gt;Node8</title>
<path fill="none" stroke="#9a32cd" stroke-dasharray="5,2" d="M459.63,-145.69C481.78,-143.21 507.18,-142.36 530,-146.5 549.27,-149.99 569.81,-157.46 586.19,-164.41"/>
<polygon fill="#9a32cd" stroke="#9a32cd" points="459.19,-142.22 449.7,-146.93 460.06,-149.17 459.19,-142.22"/>
<text text-anchor="middle" x="500" y="-149.5" font-family="Helvetica,sans-Serif" font-size="10.00"> ra</text>
</g>
<!-- Node10 -->
<g id="node10" class="node">
<title>Node10</title>
<g id="a_node10"><a xlink:href="structadiar_1_1statistics_1_1prod2__t_1_1pq__t.html" target="_top" xlink:title="Statistics for the double priority queue implementation.">
<polygon fill="none" stroke="black" points="351.5,-190.5 351.5,-220.5 449.5,-220.5 449.5,-190.5 351.5,-190.5"/>
<text text-anchor="start" x="359.5" y="-208.5" font-family="Helvetica,sans-Serif" font-size="10.00">adiar::statistics::</text>
<text text-anchor="middle" x="400.5" y="-197.5" font-family="Helvetica,sans-Serif" font-size="10.00">prod2_t::pq_t</text>
</a>
</g>
</g>
<!-- Node10&#45;&gt;Node8 -->
<g id="edge11" class="edge">
<title>Node10&#45;&gt;Node8</title>
<path fill="none" stroke="#9a32cd" stroke-dasharray="5,2" d="M459.48,-198.54C493.93,-194.4 537.12,-189.21 569.71,-185.3"/>
<polygon fill="#9a32cd" stroke="#9a32cd" points="459.06,-195.06 449.55,-199.73 459.89,-202.01 459.06,-195.06"/>
<text text-anchor="middle" x="500" y="-200.5" font-family="Helvetica,sans-Serif" font-size="10.00"> pq</text>
</g>
<!-- Node11 -->
<g id="node11" class="node">
<title>Node11</title>
<g id="a_node11"><a xlink:href="structadiar_1_1statistics_1_1nested__sweeping__t.html" target="_top" xlink:title="Nested Sweeping statistics.">
<polygon fill="none" stroke="black" points="1109,-305.5 1109,-335.5 1219,-335.5 1219,-305.5 1109,-305.5"/>
<text text-anchor="start" x="1117" y="-323.5" font-family="Helvetica,sans-Serif" font-size="10.00">adiar::statistics::</text>
<text text-anchor="middle" x="1164" y="-312.5" font-family="Helvetica,sans-Serif" font-size="10.00">nested_sweeping_t</text>
</a>
</g>
</g>
<!-- Node11&#45;&gt;Node1 -->
<g id="edge12" class="edge">
<title>Node11&#45;&gt;Node1</title>
<path fill="none" stroke="#9a32cd" stroke-dasharray="5,2" d="M1229.29,-320.5C1265.66,-320.5 1310.25,-320.5 1342.89,-320.5"/>
<polygon fill="#9a32cd" stroke="#9a32cd" points="1229.27,-317 1219.27,-320.5 1229.27,-324 1229.27,-317"/>
<text text-anchor="middle" x="1281" y="-323.5" font-family="Helvetica,sans-Serif" font-size="10.00"> nested_sweeping</text>
</g>
<!-- Node12 -->
<g id="node12" class="node">
<title>Node12</title>
<g id="a_node12"><a xlink:href="structadiar_1_1statistics_1_1nested__sweeping__t_1_1inner__t.html" target="_top" xlink:title="Inner Sweep(s)">
<polygon fill="none" stroke="black" points="824.5,-355.5 824.5,-385.5 974.5,-385.5 974.5,-355.5 824.5,-355.5"/>
<text text-anchor="start" x="832.5" y="-373.5" font-family="Helvetica,sans-Serif" font-size="10.00">adiar::statistics::</text>
<text text-anchor="middle" x="899.5" y="-362.5" font-family="Helvetica,sans-Serif" font-size="10.00">nested_sweeping_t::inner_t</text>
</a>
</g>
</g>
<!-- Node12&#45;&gt;Node11 -->
<g id="edge13" class="edge">
<title>Node12&#45;&gt;Node11</title>
<path fill="none" stroke="#9a32cd" stroke-dasharray="5,2" d="M984.8,-354.67C1017.92,-348.42 1056.25,-341.16 1091,-334.5 1096.75,-333.4 1102.76,-332.24 1108.75,-331.08"/>
<polygon fill="#9a32cd" stroke="#9a32cd" points="983.88,-351.28 974.7,-356.57 985.18,-358.16 983.88,-351.28"/>
<text text-anchor="middle" x="1042" y="-354.5" font-family="Helvetica,sans-Serif" font-size="10.00"> inner</text>
</g>
<!-- Node13&#45;&gt;Node12 -->
<g id="edge14" class="edge">
<title>Node13&#45;&gt;Node12</title>
<path fill="none" stroke="#9a32cd" stroke-dasharray="5,2" d="M699.63,-370.5C738.9,-370.5 785.98,-370.5 824.47,-370.5"/>
<polygon fill="#9a32cd" stroke="#9a32cd" points="699.56,-367 689.56,-370.5 699.56,-374 699.56,-367"/>
<text text-anchor="middle" x="757" y="-373.5" font-family="Helvetica,sans-Serif" font-size="10.00"> down</text>
</g>
<!-- Node14&#45;&gt;Node12 -->
<g id="edge16" class="edge">
<title>Node14&#45;&gt;Node12</title>
<path fill="none" stroke="#9a32cd" stroke-dasharray="5,2" d="M699.47,-413.38C740.29,-404.59 789.56,-393.97 828.86,-385.5"/>
<polygon fill="#9a32cd" stroke="#9a32cd" points="698.6,-409.99 689.56,-415.51 700.07,-416.83 698.6,-409.99"/>
<text text-anchor="middle" x="757" y="-413.5" font-family="Helvetica,sans-Serif" font-size="10.00"> up</text>
</g>
<!-- Node15 -->
<g id="node15" class="node">
<title>Node15</title>
<g id="a_node15"><a xlink:href="structadiar_1_1statistics_1_1nested__sweeping__t_1_1outer__t.html" target="_top" xlink:title="Outer Sweep(s)">
<polygon fill="none" stroke="black" points="824,-303.5 824,-333.5 975,-333.5 975,-303.5 824,-303.5"/>
<text text-anchor="start" x="832" y="-321.5" font-family="Helvetica,sans-Serif" font-size="10.00">adiar::statistics::</text>
<text text-anchor="middle" x="899.5" y="-310.5" font-family="Helvetica,sans-Serif" font-size="10.00">nested_sweeping_t::outer_t</text>
</a>
</g>
</g>
<!-- Node15&#45;&gt;Node11 -->
<g id="edge18" class="edge">
<title>Node15&#45;&gt;Node11</title>
<path fill="none" stroke="#9a32cd" stroke-dasharray="5,2" d="M985.17,-319.15C1025.73,-319.45 1073.1,-319.82 1108.74,-320.09"/>
<polygon fill="#9a32cd" stroke="#9a32cd" points="985.05,-315.64 975.02,-319.07 984.99,-322.64 985.05,-315.64"/>
<text text-anchor="middle" x="1042" y="-322.5" font-family="Helvetica,sans-Serif" font-size="10.00"> outer</text>
</g>
<!-- Node16 -->
<g id="node16" class="node">
<title>Node16</title>
<g id="a_node16"><a xlink:href="structadiar_1_1statistics_1_1nested__sweeping__t_1_1outer__t_1_1up__t.html" target="_top" xlink:title="Outer Up Sweep.">
<polygon fill="none" stroke="black" points="548,-290 548,-331 690,-331 690,-290 548,-290"/>
<text text-anchor="start" x="556" y="-319" font-family="Helvetica,sans-Serif" font-size="10.00">adiar::statistics::</text>
<text text-anchor="start" x="556" y="-308" font-family="Helvetica,sans-Serif" font-size="10.00">nested_sweeping_t::outer</text>
<text text-anchor="middle" x="619" y="-297" font-family="Helvetica,sans-Serif" font-size="10.00">_t::up_t</text>
</a>
</g>
</g>
<!-- Node16&#45;&gt;Node15 -->
<g id="edge19" class="edge">
<title>Node16&#45;&gt;Node15</title>
<path fill="none" stroke="#9a32cd" stroke-dasharray="5,2" d="M700.51,-312.81C739.4,-313.93 785.77,-315.26 823.86,-316.36"/>
<polygon fill="#9a32cd" stroke="#9a32cd" points="700.37,-309.31 690.28,-312.52 700.17,-316.3 700.37,-309.31"/>
<text text-anchor="middle" x="757" y="-318.5" font-family="Helvetica,sans-Serif" font-size="10.00"> up</text>
</g>
<!-- Node17&#45;&gt;Node1 -->
<g id="edge20" class="edge">
<title>Node17&#45;&gt;Node1</title>
<path fill="none" stroke="#9a32cd" stroke-dasharray="5,2" d="M816.12,-494.4C904.25,-478.44 1076.51,-444.71 1219,-401.5 1267.34,-386.84 1279.91,-383.26 1325,-360.5 1342.81,-351.51 1361.99,-338.86 1374.45,-330.21"/>
<polygon fill="#9a32cd" stroke="#9a32cd" points="815.28,-490.99 806.06,-496.21 816.52,-497.88 815.28,-490.99"/>
<text text-anchor="middle" x="1042" y="-460.5" font-family="Helvetica,sans-Serif" font-size="10.00"> quantify</text>
</g>
<!-- Node18&#45;&gt;Node1 -->
<g id="edge22" class="edge">
<title>Node18&#45;&gt;Node1</title>
<path fill="none" stroke="#9a32cd" stroke-dasharray="5,2" d="M1101.35,-389.46C1171.59,-372.56 1287.64,-344.64 1348.29,-330.05"/>
<polygon fill="#9a32cd" stroke="#9a32cd" points="1100.24,-386.13 1091.33,-391.87 1101.88,-392.94 1100.24,-386.13"/>
<text text-anchor="middle" x="1164" y="-389.5" font-family="Helvetica,sans-Serif" font-size="10.00"> prod3</text>
</g>
<!-- Node19&#45;&gt;Node1 -->
<g id="edge24" class="edge">
<title>Node19&#45;&gt;Node1</title>
<path fill="none" stroke="#9a32cd" stroke-dasharray="5,2" d="M816.22,-272.2C903.8,-275.12 1074.55,-282.2 1219,-296.5 1261.17,-300.68 1308.96,-307.68 1342.94,-313.04"/>
<polygon fill="#9a32cd" stroke="#9a32cd" points="816.33,-268.7 806.22,-271.87 816.1,-275.7 816.33,-268.7"/>
<text text-anchor="middle" x="1042" y="-288.5" font-family="Helvetica,sans-Serif" font-size="10.00"> reduce</text>
</g>
<!-- Node20&#45;&gt;Node1 -->
<g id="edge26" class="edge">
<title>Node20&#45;&gt;Node1</title>
<path fill="none" stroke="#9a32cd" stroke-dasharray="5,2" d="M958.73,-217.83C1043.64,-209.29 1204.43,-203.28 1325,-259.5 1349.84,-271.08 1370.89,-296.53 1381.21,-310.63"/>
<polygon fill="#9a32cd" stroke="#9a32cd" points="958.33,-214.35 948.76,-218.88 959.07,-221.31 958.33,-214.35"/>
<text text-anchor="middle" x="1164" y="-228.5" font-family="Helvetica,sans-Serif" font-size="10.00"> optmin</text>
</g>
<!-- Node21&#45;&gt;Node1 -->
<g id="edge28" class="edge">
<title>Node21&#45;&gt;Node1</title>
<path fill="none" stroke="#9a32cd" stroke-dasharray="5,2" d="M678.26,-61.83C838.1,-60.52 1274.99,-60.65 1325,-100.5 1359.33,-127.86 1381.34,-271.94 1386.71,-310.82"/>
<polygon fill="#9a32cd" stroke="#9a32cd" points="678.11,-58.33 668.14,-61.92 678.17,-65.33 678.11,-58.33"/>
<text text-anchor="middle" x="1042" y="-71.5" font-family="Helvetica,sans-Serif" font-size="10.00"> equality</text>
</g>
<!-- Node22 -->
<g id="node22" class="node">
<title>Node22</title>
<g id="a_node22"><a xlink:href="structadiar_1_1statistics_1_1equality__t_1_1fast__t.html" target="_top" xlink:title="Statistics from O(N) linear&#45;scan equality checking algorithm.">
<polygon fill="none" stroke="black" points="351,-49.5 351,-79.5 450,-79.5 450,-49.5 351,-49.5"/>
<text text-anchor="start" x="359" y="-67.5" font-family="Helvetica,sans-Serif" font-size="10.00">adiar::statistics::</text>
<text text-anchor="middle" x="400.5" y="-56.5" font-family="Helvetica,sans-Serif" font-size="10.00">equality_t::fast_t</text>
</a>
</g>
</g>
<!-- Node22&#45;&gt;Node21 -->
<g id="edge30" class="edge">
<title>Node22&#45;&gt;Node21</title>
<path fill="none" stroke="#9a32cd" stroke-dasharray="5,2" d="M460.46,-63.96C494.84,-63.64 537.64,-63.24 569.95,-62.94"/>
<polygon fill="#9a32cd" stroke="#9a32cd" points="460.05,-60.46 450.09,-64.05 460.12,-67.46 460.05,-60.46"/>
<text text-anchor="middle" x="500" y="-67.5" font-family="Helvetica,sans-Serif" font-size="10.00"> fast_check</text>
</g>
<!-- Node23 -->
<g id="node23" class="node">
<title>Node23</title>
<g id="a_node23"><a xlink:href="structadiar_1_1statistics_1_1equality__t_1_1slow__t.html" target="_top" xlink:title="Statistics from O(N log N) time&#45;forward processing equality checking algorithm.">
<polygon fill="none" stroke="black" points="349,-0.5 349,-30.5 452,-30.5 452,-0.5 349,-0.5"/>
<text text-anchor="start" x="357" y="-18.5" font-family="Helvetica,sans-Serif" font-size="10.00">adiar::statistics::</text>
<text text-anchor="middle" x="400.5" y="-7.5" font-family="Helvetica,sans-Serif" font-size="10.00">equality_t::slow_t</text>
</a>
</g>
</g>
<!-- Node23&#45;&gt;Node21 -->
<g id="edge31" class="edge">
<title>Node23&#45;&gt;Node21</title>
<path fill="none" stroke="#9a32cd" stroke-dasharray="5,2" d="M462.09,-28.65C496.12,-36.04 538,-45.13 569.79,-52.03"/>
<polygon fill="#9a32cd" stroke="#9a32cd" points="462.77,-25.22 452.26,-26.52 461.29,-32.06 462.77,-25.22"/>
<text text-anchor="middle" x="500" y="-46.5" font-family="Helvetica,sans-Serif" font-size="10.00"> slow_check</text>
</g>
<!-- Node24&#45;&gt;Node1 -->
<g id="edge32" class="edge">
<title>Node24&#45;&gt;Node1</title>
<path fill="none" stroke="#9a32cd" stroke-dasharray="5,2" d="M1101.28,-649.32C1164.47,-658.48 1264.37,-661.79 1325,-607.5 1367.85,-569.13 1384.09,-375.67 1387.35,-330.12"/>
<polygon fill="#9a32cd" stroke="#9a32cd" points="1101.5,-645.81 1091.09,-647.74 1100.43,-652.73 1101.5,-645.81"/>
<text text-anchor="middle" x="1164" y="-657.5" font-family="Helvetica,sans-Serif" font-size="10.00"> count</text>
</g>
<!-- Node25 -->
<g id="node25" class="node">
<title>Node25</title>
<g id="a_node25"><a xlink:href="structadiar_1_1statistics_1_1node__file__t.html" target="_top" xlink:title="Node Files statistics.">
<polygon fill="none" stroke="black" points="1115,-17.5 1115,-47.5 1213,-47.5 1213,-17.5 1115,-17.5"/>
<text text-anchor="start" x="1123" y="-35.5" font-family="Helvetica,sans-Serif" font-size="10.00">adiar::statistics::</text>
<text text-anchor="middle" x="1164" y="-24.5" font-family="Helvetica,sans-Serif" font-size="10.00">node_file_t</text>
</a>
</g>
</g>
<!-- Node25&#45;&gt;Node1 -->
<g id="edge35" class="edge">
<title>Node25&#45;&gt;Node1</title>
<path fill="none" stroke="#9a32cd" stroke-dasharray="5,2" d="M1223.39,-24.17C1257.02,-22.74 1297.88,-27.26 1325,-51.5 1365.14,-87.38 1383.33,-267.2 1387.2,-310.91"/>
<polygon fill="#9a32cd" stroke="#9a32cd" points="1222.97,-20.68 1213.2,-24.78 1223.4,-27.67 1222.97,-20.68"/>
<text text-anchor="middle" x="1281" y="-54.5" font-family="Helvetica,sans-Serif" font-size="10.00"> node_file</text>
</g>
</g>
</svg>
